<?xml version="1.0" encoding="UTF-8" standalone="no"?>
<!-- Created with Inkscape (http://www.inkscape.org/) -->

<svg
   width="38.999687mm"
   height="39.000206mm"
   viewBox="0 0 38.999687 39.000206"
   version="1.1"
   id="svg5"
   xml:space="preserve"
   xmlns:inkscape="http://www.inkscape.org/namespaces/inkscape"
   xmlns:sodipodi="http://sodipodi.sourceforge.net/DTD/sodipodi-0.dtd"
   xmlns="http://www.w3.org/2000/svg"
   xmlns:svg="http://www.w3.org/2000/svg"><sodipodi:namedview
     id="namedview7"
     pagecolor="#ffffff"
     bordercolor="#cccccc"
     borderopacity="1"
     inkscape:showpageshadow="0"
     inkscape:pageopacity="0"
     inkscape:pagecheckerboard="0"
     inkscape:deskcolor="#d1d1d1"
     inkscape:document-units="mm"
     showgrid="false" /><defs
     id="defs2" /><path
     id="rect2957-6"
     style="fill:#000000;fill-opacity:1;stroke-width:2"
     d="M 17.999935,2.2306853e-7 V 2.9998172 6.0001502 h -3.000334 -2.999817 v 2.999817 H 8.9999685 v 3.0003338 h -3.000334 v 2.999817 2.999817 H 2.9998175 4.5927388e-7 v 3.000333 H 2.9998175 5.9996345 v 2.999817 2.999817 h 3.000334 v 3.000334 h 2.9998155 v 2.999817 h 2.999817 3.000334 v 2.999817 3.000333 h 2.99982 V 35.99987 33.000053 h 2.99981 3.00034 v -2.999817 h 2.99981 v -3.000334 h 3.00034 v -2.999817 -2.999817 h 2.99981 2.99982 v -3.000333 h -2.99982 -2.99981 v -2.999817 -2.999817 h -3.00034 V 8.9999672 h -2.99981 v -2.999817 h -3.00034 -2.99981 V 2.9998172 2.2306853e-7 Z M 29.999715,8.9999672 h 3.00034 v -2.999817 h -3.00034 z m 0,21.0002688 v 2.999817 h 3.00034 v -2.999817 z m -20.9997465,0 h -3.000334 v 2.999817 h 3.000334 z m 0,-21.0002688 v -2.999817 h -3.000334 v 2.999817 z m 2.9998155,3.0003338 h 2.999817 3.000334 v 2.999817 2.999817 h -3.000334 -2.999817 v -2.999817 z" /><path
     id="rect2957-5-59-5-2"
     style="fill:#ff0000;fill-opacity:1;stroke-width:2"
     d="m 4.5927388e-7,2.9998172 v 3.000333 H 2.9998175 v 2.999817 h 2.999817 v 3.0003338 h 3.000334 v 2.999817 h 2.9998155 v 2.999817 h 2.999817 v 3.000333 h -2.999817 v 2.999817 H 8.9999685 v 2.999817 h -3.000334 v 3.000334 h -2.999817 v 2.999817 H 4.5927388e-7 V 35.99987 H 2.9998175 5.9996345 v -2.999817 h 3.000334 v -2.999817 h 2.9998155 v -3.000334 h 2.999817 v -2.999817 h 3.000334 v -2.999817 h 2.99982 v 2.999817 h 3.00033 v 2.999817 h 2.99982 v 3.000334 h 2.99981 v 2.999817 h 2.99982 v 2.999817 h 3.00033 2.99982 v -2.999817 h -2.99982 v -2.999817 h -2.99981 v -3.000334 h -3.00034 v -2.999817 h -2.99981 v -2.999817 h -2.99982 -5.2e-4 v -3.000333 h 3.00034 v -2.999817 h 2.99981 v -2.999817 h 3.00034 V 8.9999672 h 2.99981 v -2.999817 h 2.99982 v -3.000333 h -2.99982 -2.99981 v 3.000333 h -3.00034 v 2.999817 h -2.99981 v 3.0003338 h -3.00034 v 2.999817 h -2.99981 v 2.999817 h -2.99982 v -2.999817 h -2.999817 -5.17e-4 V 12.000301 H 11.999784 V 8.9999672 H 8.9999685 v -2.999817 h -3.000334 v -3.000333 h -2.999817 z" /></svg>
