<?xml version="1.0" encoding="UTF-8" standalone="no"?>
<!-- Created with Inkscape (http://www.inkscape.org/) -->

<svg
   width="51.365158mm"
   height="59.143921mm"
   viewBox="0 0 51.365158 59.143921"
   version="1.1"
   id="svg5"
   xml:space="preserve"
   xmlns:inkscape="http://www.inkscape.org/namespaces/inkscape"
   xmlns:sodipodi="http://sodipodi.sourceforge.net/DTD/sodipodi-0.dtd"
   xmlns="http://www.w3.org/2000/svg"
   xmlns:svg="http://www.w3.org/2000/svg"><sodipodi:namedview
     id="namedview7"
     pagecolor="#ffffff"
     bordercolor="#cccccc"
     borderopacity="1"
     inkscape:showpageshadow="0"
     inkscape:pageopacity="0"
     inkscape:pagecheckerboard="0"
     inkscape:deskcolor="#d1d1d1"
     inkscape:document-units="mm"
     showgrid="false" /><defs
     id="defs2" /><g
     id="g1942"
     transform="translate(-272.94842,-3.4058156e-4)"><path
       d="m 322.15881,23.224061 c -8.52841,3.40113 -15.98225,8.884709 -0.86431,21.49334 -17.25754,-8.536164 -18.35785,0.876653 -18.93464,14.426848 -4.51485,-16.20132 -11.35345,-20.414546 -27.82782,-11.495265 10.29653,-14.153092 14.60923,-18.422762 -0.7807,-33.409821 0,0 21.81261,14.144273 21.77592,-11.4271786 2.51389,21.4143176 14.34994,9.2889926 17.41311,4.4732225 -3.16618,6.1863111 -9.03041,16.4934201 9.21844,15.9388541"
       style="fill:#fab40d;fill-opacity:1;fill-rule:nonzero;stroke:none;stroke-width:0.0352778"
       id="path556" /><path
       d="m 297.68767,18.890891 c 0.0935,3.898195 2.92276,6.332009 7.60977,3.581753 -5.85047,5.696303 3.90701,5.188656 3.90701,5.188656 -4.80589,1.243542 -9.47138,2.885722 -9.06215,14.542206 0,0 -0.8569,-11.656484 -12.34052,-4.435475 0,0 10.3131,-5.72382 2.78976,-11.82617 7.15998,1.066094 7.09613,-7.05097 7.09613,-7.05097"
       style="fill:#f46f26;fill-opacity:1;fill-rule:nonzero;stroke:none;stroke-width:0.0352778"
       id="path558" /><path
       d="m 297.89016,21.279902 c 0.072,3.0099 2.25672,4.889501 5.87622,2.765425 -4.51767,4.398787 3.01661,4.006851 3.01661,4.006851 -3.71087,0.959908 -7.31379,2.228144 -6.99735,11.22927 0,0 -0.66181,-9.001126 -9.52924,-3.42512 0,0 7.96326,-4.419953 2.15407,-9.132006 5.52908,0.823031 5.47969,-5.44442 5.47969,-5.44442"
       style="fill:#ffffff;fill-opacity:1;fill-rule:nonzero;stroke:none;stroke-width:0.0352778"
       id="path560" /><path
       d="m 289.80203,39.281448 -10.40236,10.213975 c 0,0 6.60788,-3.871383 10.40236,-10.213975"
       style="fill:#f46f26;fill-opacity:1;fill-rule:nonzero;stroke:none;stroke-width:0.0352778"
       id="path562" /><path
       d="m 295.65108,41.785817 2.30399,13.234107 c 0,0 0.29563,-9.028642 -2.30399,-13.234107"
       style="fill:#f46f26;fill-opacity:1;fill-rule:nonzero;stroke:none;stroke-width:0.0352778"
       id="path564" /><path
       d="m 301.02742,45.379212 2.96439,7.257345 c 0,0 -2.13748,-2.924528 -2.96439,-7.257345"
       style="fill:#f46f26;fill-opacity:1;fill-rule:nonzero;stroke:none;stroke-width:0.0352778"
       id="path566" /><path
       d="M 295.10569,15.715185 290.2564,3.453378e-4 c 0,0 1.32433,7.6379921622 4.84929,15.7148396622"
       style="fill:#f46f26;fill-opacity:1;fill-rule:nonzero;stroke:none;stroke-width:0.0352778"
       id="path568" /><path
       d="M 297.9653,14.755277 V 6.8332985 c 0,0 1.04634,4.1451395 0,7.9219785"
       style="fill:#f46f26;fill-opacity:1;fill-rule:nonzero;stroke:none;stroke-width:0.0352778"
       id="path570" /><path
       d="m 310.2134,24.5752 14.10017,-4.83482 c 0,0 -6.94937,1.309511 -14.10017,4.83482"
       style="fill:#f46f26;fill-opacity:1;fill-rule:nonzero;stroke:none;stroke-width:0.0352778"
       id="path572" /><path
       d="m 309.19034,37.66502 9.39906,11.568995 c 0,0 -3.62479,-6.072011 -9.39906,-11.568995"
       style="fill:#f46f26;fill-opacity:1;fill-rule:nonzero;stroke:none;stroke-width:0.0352778"
       id="path574" /><path
       d="m 311.93707,27.720214 5.4169,-0.06491 c 0,0 -3.00143,0.855486 -5.4169,0.06491"
       style="fill:#f46f26;fill-opacity:1;fill-rule:nonzero;stroke:none;stroke-width:0.0352778"
       id="path576" /><path
       d="m 284.60102,25.301216 -11.6526,-4.855633 c 0,0 6.98888,4.574822 11.6526,4.855633"
       style="fill:#f46f26;fill-opacity:1;fill-rule:nonzero;stroke:none;stroke-width:0.0352778"
       id="path578" /><path
       d="m 285.94052,21.279902 -6.54085,-6.524625 c 0,0 4.62738,3.229328 6.54085,6.524625"
       style="fill:#f46f26;fill-opacity:1;fill-rule:nonzero;stroke:none;stroke-width:0.0352778"
       id="path580" /><path
       d="m 285.94052,36.56012 c 0.65581,-0.163336 -8.05709,3.928181 -8.05709,3.928181 0,0 2.80388,-2.616906 8.05709,-3.928181"
       style="fill:#f46f26;fill-opacity:1;fill-rule:nonzero;stroke:none;stroke-width:0.0352778"
       id="path582" /></g></svg>
