<?xml version="1.0" encoding="UTF-8" standalone="no"?>
<!-- Created with Inkscape (http://www.inkscape.org/) -->

<svg
   width="38.999691mm"
   height="39.000202mm"
   viewBox="0 0 38.999691 39.000202"
   version="1.1"
   id="svg5"
   xml:space="preserve"
   xmlns:inkscape="http://www.inkscape.org/namespaces/inkscape"
   xmlns:sodipodi="http://sodipodi.sourceforge.net/DTD/sodipodi-0.dtd"
   xmlns="http://www.w3.org/2000/svg"
   xmlns:svg="http://www.w3.org/2000/svg"><sodipodi:namedview
     id="namedview7"
     pagecolor="#ffffff"
     bordercolor="#cccccc"
     borderopacity="1"
     inkscape:showpageshadow="0"
     inkscape:pageopacity="0"
     inkscape:pagecheckerboard="0"
     inkscape:deskcolor="#d1d1d1"
     inkscape:document-units="mm"
     showgrid="false" /><defs
     id="defs2" /><path
     id="rect2957"
     style="fill:#000000;fill-opacity:1;stroke-width:2"
     d="M 17.999939,9.6874901e-7 V 3.000331 6.000151 h -3.00034 -2.99982 v 2.99982 H 8.9999693 v 3.00033 h -3.00034 v 2.99982 2.99982 H 2.9998193 -7.3142493e-7 v 3.00033 H 2.9998193 h 2.99981 v 2.99982 2.99981 h 3.00034 v 3.00034 h 2.9998097 v 2.99981 h 2.99982 3.00034 v 2.99982 3.00033 h 2.99981 v -3.00033 -2.99982 h 2.99982 3.00033 v -2.99981 h 2.99982 v -3.00034 h 2.99982 v -2.99981 -2.99982 h 3.00033 2.99982 v -3.00033 h -2.99982 -3.00033 v -2.99982 -2.99982 h -2.99982 v -3.00033 h -2.99982 v -2.99982 h -3.00033 -2.99982 V 3.000331 9.6874902e-7 Z M 29.999719,8.999971 h 2.99982 v -2.99982 h -2.99982 z m 0,21.00027 v 2.99981 h 2.99982 v -2.99981 z m -20.9997497,0 h -3.00034 v 2.99981 h 3.00034 z m 0,-21.00027 v -2.99982 h -3.00034 v 2.99982 z m 2.9998097,3.00033 h 2.99982 3.00034 v 2.99982 2.99982 h -3.00034 -2.99982 v -2.99982 z" /></svg>
