<?xml version="1.0" encoding="UTF-8" standalone="no"?>
<!-- Created with Inkscape (http://www.inkscape.org/) -->

<svg
   width="25.262028mm"
   height="25.262024mm"
   viewBox="0 0 25.262028 25.262024"
   version="1.1"
   id="svg5"
   xml:space="preserve"
   xmlns:inkscape="http://www.inkscape.org/namespaces/inkscape"
   xmlns:sodipodi="http://sodipodi.sourceforge.net/DTD/sodipodi-0.dtd"
   xmlns="http://www.w3.org/2000/svg"
   xmlns:svg="http://www.w3.org/2000/svg"><sodipodi:namedview
     id="namedview7"
     pagecolor="#ffffff"
     bordercolor="#cccccc"
     borderopacity="1"
     inkscape:showpageshadow="0"
     inkscape:pageopacity="0"
     inkscape:pagecheckerboard="0"
     inkscape:deskcolor="#d1d1d1"
     inkscape:document-units="mm"
     showgrid="false" /><defs
     id="defs2" /><g
     inkscape:label="Layer 1"
     inkscape:groupmode="layer"
     id="layer1"
     transform="translate(-54.060193,-126.2057)"><path
       id="rect15537-27-6"
       style="fill:#808080;fill-opacity:1;stroke-width:2"
       d="m 58.796857,126.2057 v 1.57871 1.57872 h 1.578715 v 1.57923 1.57872 h 1.578715 1.578715 1.579232 v -1.57872 -1.57923 h -1.579232 v -1.57872 -1.57871 h -1.578715 -1.578715 z m 6.315377,6.31538 v 1.57871 1.57923 1.57872 h 1.578715 v 1.57871 h 1.578715 1.579232 1.57871 v 1.57872 1.57923 h 1.57872 v 1.57871 1.57872 h 1.57923 1.57872 1.57871 v -1.57872 -1.57871 h -1.57871 v -1.57923 -1.57872 h -1.57872 v -1.57871 h -1.57923 -1.57872 v -1.57872 h -1.57871 -1.579232 v -1.57923 h -1.578715 v -1.57871 z m 12.630752,12.63075 v 1.57923 1.57872 1.57871 h 1.57923 v -1.57871 -1.57872 -1.57923 z m -11.052037,-6.31538 h -1.578715 -1.579232 -1.578715 -1.578715 v -1.57871 h -1.578715 v -1.57872 -1.57923 -1.57871 -1.57872 H 57.217625 55.63891 54.060195 v 1.57872 1.57871 1.57923 1.57872 h 1.578715 v 1.57871 h 1.578715 v 1.57872 1.57923 h 1.579232 v 1.57871 h 1.578715 1.578715 v 1.57872 h 1.578715 1.579232 1.578715 v 1.57923 1.57872 1.57871 h 1.578715 v 1.57923 h 1.579232 1.57871 1.57872 v -1.57923 h -1.57872 v -1.57871 -1.57872 -1.57923 -1.57872 h -1.57871 -1.579232 -1.578715 v -1.57871 -1.57923 z m 1.578715,-12.63075 v 1.57871 h 1.579232 v 1.57872 h 1.57871 v 1.57923 h 1.57872 1.57923 v 1.57872 h 1.57872 1.57871 1.57923 v -1.57872 -1.57923 -1.57872 -1.57871 h -1.57923 -1.57871 -1.57872 -1.57923 -1.57872 -1.57871 z m -14.209469,18.94613 v 1.57923 1.57872 1.57871 1.57923 h 1.578715 1.578715 1.579232 1.578715 1.578715 1.578715 v -1.57923 h -1.578715 -1.578715 v -1.57871 h -1.578715 -1.579232 v -1.57872 H 55.63891 v -1.57923 z"
       inkscape:export-filename="pokemon-wave.svg"
       inkscape:export-xdpi="96"
       inkscape:export-ydpi="96" /><path
       id="rect15537-06-8-02-3"
       style="fill:#ffffff;fill-opacity:0;stroke-width:2"
       d="m 54.060195,126.2057 v 1.57871 h 1.578715 1.578715 V 126.2057 H 55.63891 Z m 3.15743,1.57871 v 1.57872 h 1.579232 v -1.57872 z m 1.579232,1.57872 v 1.57923 1.57872 h 1.578715 v -1.57872 -1.57923 z m 1.578715,3.15795 v 1.57871 1.57923 h 1.578715 v -1.57923 -1.57871 z m 1.578715,3.15794 v 1.57872 h 1.578715 v -1.57872 z m 1.578715,1.57872 v 1.57871 h 1.579232 1.578715 v -1.57871 h -1.578715 z m 3.157947,1.57871 v 1.57872 h 1.578715 1.579232 v -1.57872 h -1.579232 z m 3.157947,1.57872 v 1.57923 h 1.57871 v -1.57923 z m 1.57871,1.57923 v 1.57871 1.57872 h 1.57872 v -1.57872 -1.57871 z m 1.57872,3.15743 v 1.57923 1.57872 h 1.57923 v -1.57872 -1.57923 z m 1.57923,3.15795 v 1.57871 h 1.57872 v -1.57871 z m 1.57872,1.57871 v 1.57923 h 1.57871 1.57923 v -1.57923 h -1.57923 z" /><path
       id="rect15537-06-8-2-7-9"
       style="fill:#030303;fill-opacity:1;stroke-width:2"
       d="m 57.217625,126.2057 v 1.57871 h 1.579232 v -1.57871 z m 0,1.57871 H 55.63891 54.060195 v 1.57872 1.57923 h 1.578715 1.578715 1.579232 v -1.57923 h -1.579232 z m 6.315377,-1.57871 v 1.57871 1.57872 h 1.579232 v 1.57923 1.57872 h 1.578715 v 1.57871 h 1.578715 v 1.57923 h 1.579232 1.57871 v 1.57872 h 1.57872 1.57923 v 1.57871 h 1.57872 v 1.57872 1.57923 h 1.57871 v 1.57871 1.57872 h 1.57923 v -1.57872 -1.57871 -1.57923 -1.57872 -1.57871 -1.57872 -1.57923 -1.57871 h -1.57923 -1.57871 -1.57872 v -1.57872 h -1.57923 -1.57872 v -1.57923 h -1.57871 v -1.57872 h -1.579232 v -1.57871 h -1.578715 -1.578715 z m 14.209984,18.94613 h -1.57871 -1.57872 v 1.57923 1.57872 h 1.57872 v 1.57871 h 1.57871 v -1.57871 -1.57872 z m -1.57871,4.73666 h -1.57872 v -1.57871 h -1.57923 v -1.57872 -1.57923 h -1.57872 v 1.57923 1.57872 1.57871 h 1.57872 v 1.57923 h 1.57923 1.57872 z M 65.112234,132.52108 h -1.579232 -1.578715 v 1.57871 1.57923 h 1.578715 v 1.57872 h 1.579232 v -1.57872 -1.57923 z m -1.579232,4.73666 h -1.578715 v -1.57872 h -1.578715 v -1.57923 -1.57871 h -1.578715 v 1.57871 1.57923 1.57872 h 1.578715 v 1.57871 h 1.578715 1.578715 z m -9.472807,0 v 1.57871 1.57872 1.57923 1.57871 1.57872 h 1.578715 v 1.57923 h 1.578715 v 1.57872 h 1.579232 1.578715 v 1.57871 h 1.578715 1.578715 v 1.57923 h 1.579232 1.578715 1.578715 v -1.57923 h -1.578715 v -1.57871 -1.57872 -1.57923 h -1.578715 -1.579232 -1.578715 v -1.57872 h -1.578715 -1.578715 v -1.57871 h -1.579232 v -1.57923 -1.57872 H 55.63891 v -1.57871 z m 15.788701,1.57871 v 1.57872 h 1.57871 v -1.57872 z m 0,1.57872 h -1.579232 -1.578715 v 1.57923 1.57871 h 1.578715 1.579232 1.57871 v -1.57871 h -1.57871 z" /></g></svg>
