<?xml version="1.0" encoding="UTF-8" standalone="no"?>
<!-- Created with Inkscape (http://www.inkscape.org/) -->

<svg
   width="23.561188mm"
   height="28.567245mm"
   viewBox="0 0 23.561188 28.567245"
   version="1.1"
   id="svg5"
   xml:space="preserve"
   xmlns="http://www.w3.org/2000/svg"
   xmlns:svg="http://www.w3.org/2000/svg"><defs
     id="defs2" /><path
     d="m 4.3448072,19.990491 c 0,1.1998 -0.97226,2.17241 -2.17241,2.17241 -1.19979004,0 -2.1724000418427,-0.97261 -2.1724000418427,-2.17241 0,-1.19979 0.9726100018427,-2.1724 2.1724000418427,-2.1724 1.20015,0 2.17241,0.97261 2.17241,2.1724"
     style="fill:#f0c6bd;fill-opacity:1;fill-rule:nonzero;stroke:none;stroke-width:0.0352778"
     id="path11903-0-4-1-1-1" /><path
     d="m 1.5465772,20.285061 h 0.58913 c 0.10125,0 0.1838,-0.0829 0.1838,-0.18415 0,-0.10124 -0.0825,-0.18415 -0.1838,-0.18415 h -0.58913 c -0.10125,0 -0.18451,0.0829 -0.18451,0.18415 0,0.10125 0.0833,0.18415 0.18451,0.18415"
     style="fill:#d1acb8;fill-opacity:1;fill-rule:nonzero;stroke:none;stroke-width:0.0352778"
     id="path11905-1-9-3-4-9" /><path
     d="m 11.780883,28.567251 c 5.03097,0 9.10943,-1.84538 9.10943,-6.87635 V 11.61486 c 0,-5.0309582 -4.07846,-9.1094182 -9.10943,-9.1094182 -5.0306068,0 -9.1094268,4.07846 -9.1094268,9.1094182 v 10.076041 c 0,5.03097 4.07882,6.87635 9.1094268,6.87635"
     style="fill:#f0c6bd;fill-opacity:1;fill-rule:nonzero;stroke:none;stroke-width:0.0352778"
     id="path11875-9-4-6-3" /><path
     d="m 2.5260142,17.697381 0.482974,0.0227 c 0.369241,0.0173 0.69313,-0.42796 0.719543,-0.99002 l 0.430776,-9.1670392 c 0.02641,-0.56206 -0.254274,-1.03614 -0.623514,-1.05349 l -0.482974,-0.0227 c -0.369471,-0.0174 -0.693371,0.42831 -0.719784,0.99037 l -0.430776,9.1670392 c -0.02641,0.56206 0.254285,1.03578 0.623755,1.05314"
     style="fill:#3e687d;fill-opacity:1;fill-rule:nonzero;stroke:none;stroke-width:0.0352778"
     id="path11793-3-0-1-91" /><path
     d="m 20.139093,17.331081 0.48293,-0.0236 c 0.36921,-0.018 0.64905,-0.49225 0.62162,-1.05426 l -0.44742,-9.1662492 c -0.0274,-0.56201 -0.35215,-1.00709 -0.72136,-0.98907 l -0.48293,0.0236 c -0.36944,0.018 -0.64926,0.49262 -0.62182,1.05463 l 0.44742,9.1662492 c 0.0274,0.56201 0.35212,1.00673 0.72156,0.9887"
     style="fill:#3e687d;fill-opacity:1;fill-rule:nonzero;stroke:none;stroke-width:0.0352778"
     id="path11793-3-0-9-0-0" /><path
     d="m 10.410993,25.959521 h 2.12655 c 0.88088,0 1.59526,-0.71403 1.59526,-1.59491 0,-0.88089 -0.71438,-1.59491 -1.59526,-1.59491 h -2.12655 c -0.8808798,0 -1.5952598,0.71402 -1.5952598,1.59491 0,0.88088 0.71438,1.59491 1.5952598,1.59491"
     style="fill:#f0c6bd;fill-opacity:1;fill-rule:nonzero;stroke:none;stroke-width:0.0352778"
     id="path11879-1-0-2-4" /><ellipse
     style="fill:#ffffff;fill-opacity:1;stroke:none;stroke-width:1;stroke-linecap:round;stroke-linejoin:round;stroke-dasharray:none;stroke-opacity:1"
     id="path27349"
     cx="11.402281"
     cy="24.056063"
     rx="1.358632"
     ry="1.0794611" /><path
     d="m 9.0243112,24.037701 c 0.822578,-0.0108 1.6172118,-0.41927 2.0225518,-1.13494 0.37674,-0.66402 0.48401,-1.56275 -0.59233,-2.49882 -2.1527228,-1.87251 -4.3800728,0.0642 -5.2554608,-0.18881 -0.409439,-0.11776 -0.639247,-0.47025 -0.767619,-0.81172 -0.09746,-0.2587 -0.475519,-0.19661 -0.485727,0.0799 -0.01251,0.34229 0.0447,0.81589 0.245322,1.46511 0.553099,1.79004 1.038704,3.13902 4.833264,3.08928"
     style="fill:#305065;fill-opacity:1;fill-rule:nonzero;stroke:none;stroke-width:0.0352778"
     id="path11883-4-5-0-0" /><path
     d="m 13.930603,24.174681 c -0.82246,0.0177 -1.63075,-0.36308 -2.06061,-1.06465 -0.39948,-0.65058 -0.53777,-1.54437 0.50555,-2.51746 2.08665,-1.94585 4.37967,-0.0877 5.24578,-0.3705 0.40512,-0.1322 0.62259,-0.49208 0.73908,-0.83778 0.0885,-0.26227 0.46843,-0.21295 0.4882,0.0627 0.0243,0.342 -0.0165,0.8173 -0.1945,1.47306 -0.49084,1.8081 -0.92949,3.17308 -4.7235,3.25463"
     style="fill:#305065;fill-opacity:1;fill-rule:nonzero;stroke:none;stroke-width:0.0352778"
     id="path11885-5-3-43-0" /><g
     id="g25352-5-1-03"
     transform="matrix(0.39252642,0,0,0.39252642,-37.202586,-74.797745)"
     style="stroke-width:2.54759"><g
       id="path15157-1-7-2"
       style="stroke-width:2.54759"><path
         style="color:#000000;fill:#bec9e2;stroke-width:2.54759;stroke-linecap:round;stroke-linejoin:round"
         d="m 123.66894,197.96621 a 25.830822,3.3659973 0 0 0 -25.8284,3.35587 h -0.0047 c 6.68e-4,0.003 0.0014,0.006 0.0021,0.01 0.843873,4.36137 1.537537,6.86772 2.39985,9.80818 23.43088,5.83773 47.19867,-0.004 47.19867,-0.004 l 2.06344,-9.80405 a 25.830822,3.3659973 0 0 0 -25.83098,-3.36569 z"
         id="path25360-2-9-8" /><path
         style="color:#000000;fill:#bec9e2;stroke-width:2.54759;stroke-linecap:round;stroke-linejoin:round"
         d="m 123.66797,197.4668 c -7.13493,8e-5 -13.59426,0.37506 -18.29883,0.98632 -2.35228,0.30564 -4.26326,0.6676 -5.623046,1.08399 -0.679895,0.20819 -1.221102,0.42678 -1.632813,0.68555 -0.266957,0.16778 -0.362678,0.45031 -0.501953,0.70507 a 0.50005,0.50005 0 0 0 -0.21875,0.31055 c -0.0037,0.0315 -0.05198,0.0394 -0.05273,0.0723 l 0.04492,-0.043 a 0.50005,0.50005 0 0 0 -0.03906,0.15039 c 0.0036,0.0186 0.0042,0.0215 0.002,0.01 0.846793,4.37647 1.546626,6.90892 2.410156,9.85352 a 0.50005,0.50005 0 0 0 0.359376,0.34375 c 23.58375,5.87582 47.43945,-0.004 47.43945,-0.004 a 0.50005,0.50005 0 0 0 0.36914,-0.38281 l 2.0625,-9.80273 A 0.50005,0.50005 0 0 0 150,201.33203 c -3.4e-4,-0.49155 -0.34669,-0.83915 -0.75586,-1.09961 -0.40917,-0.26045 -0.94884,-0.47862 -1.62695,-0.6875 -1.35622,-0.41775 -3.26577,-0.78125 -5.61914,-1.08789 -4.70675,-0.61327 -11.17993,-0.99024 -18.33008,-0.99023 z m 0,1 c 7.11494,-1e-5 13.55904,0.37561 18.20117,0.98047 2.32107,0.30242 4.19484,0.66514 5.45313,1.05273 0.62914,0.19379 1.10552,0.39842 1.38476,0.57617 0.26935,0.17145 0.28193,0.26298 0.2832,0.2461 l -1.97461,9.38867 c -0.84878,0.20418 -23.61522,5.57315 -46.36914,-0.002 -0.817832,-2.79772 -1.491394,-5.23871 -2.296871,-9.38281 9.41e-4,0.0175 0.01992,-0.085 0.294922,-0.25781 0.283777,-0.17836 0.763096,-0.38086 1.394529,-0.57422 1.26287,-0.38671 3.13887,-0.74738 5.45899,-1.04883 4.64023,-0.6029 11.07013,-0.97843 18.16992,-0.97851 z"
         id="path25362-4-4-2" /></g><g
       id="path14375-9-6-7-4"
       style="stroke-width:2.54759"><path
         style="color:#000000;fill:#2951af;stroke-width:2.54758;stroke-linecap:round;stroke-linejoin:round"
         d="m 149.48127,204.23385 a 25.830822,3.3659973 0 0 1 -25.81341,3.29386 25.830822,3.3659973 0 0 1 -25.807722,-3.27061 25.830822,3.3659973 0 0 0 -0.02274,0.0956 25.830822,3.3659973 0 0 0 25.830462,3.3662 25.830822,3.3659973 0 0 0 25.83098,-3.3662 25.830822,3.3659973 0 0 0 -0.0176,-0.11886 z"
         id="path25366-7-0-8" /><path
         style="color:#000000;fill:#17295c;stroke-width:2.54759;stroke-linecap:round;stroke-linejoin:round"
         d="m 149.63086,203.75586 a 0.50004651,0.50004651 0 0 0 -0.59375,0.47656 l -0.0488,-0.0801 c 0.003,-0.0168 -0.0671,0.13501 -0.37891,0.31641 -0.31179,0.1814 -0.80938,0.38171 -1.45507,0.57227 -1.29139,0.38111 -3.17392,0.73397 -5.48828,1.02929 -4.62873,0.59064 -10.99252,0.95663 -17.99805,0.95703 -6.9707,-4.4e-4 -13.30911,-0.36315 -17.93359,-0.94922 -2.31225,-0.29303 -4.19816,-0.6425 -5.5,-1.02148 -0.650926,-0.18949 -1.156518,-0.39004 -1.478521,-0.57227 -0.322002,-0.18222 -0.408405,-0.34389 -0.40625,-0.33398 a 0.50004651,0.50004651 0 0 0 -0.960937,-0.0566 c -0.02171,0.0626 -0.0382,0.12796 -0.04687,0.19531 a 0.50004651,0.50004651 0 0 0 -0.0039,0.0625 c -2.28e-4,0.4916 0.346831,0.84102 0.755859,1.10156 0.409028,0.26055 0.947004,0.4786 1.625,0.6875 1.355989,0.41782 3.265779,0.78121 5.619139,1.0879 4.70673,0.61337 11.17926,0.99022 18.33008,0.99023 7.15092,1e-5 13.62324,-0.37686 18.33008,-0.99023 2.35341,-0.30669 4.26311,-0.67007 5.61914,-1.0879 0.67801,-0.20891 1.21596,-0.42695 1.625,-0.6875 0.40903,-0.26054 0.75608,-0.60995 0.75586,-1.10156 a 0.50004651,0.50004651 0 0 0 0,-0.006 c -7.6e-4,-0.0601 -0.0135,-0.11753 -0.0254,-0.17578 a 0.50004651,0.50004651 0 0 0 -0.006,-0.0488 c -0.002,-0.008 -0.002,-0.0159 -0.004,-0.0234 l -0.004,0.004 a 0.50004651,0.50004651 0 0 0 -0.32812,-0.3457 z"
         id="path25368-5-1-3" /></g><g
       id="path14375-9-4-5-1-5"
       style="stroke-width:2.54759"><path
         style="color:#000000;fill:#2951af;stroke-width:2.54759;stroke-linecap:round;stroke-linejoin:round"
         d="m 149.03473,206.69592 a 25.346267,3.3659973 0 0 1 -25.32918,3.29386 25.346267,3.3659973 0 0 1 -25.323604,-3.27061 25.346267,3.3659973 0 0 0 -0.02232,0.0956 25.346267,3.3659973 0 0 0 25.345924,3.3662 25.346267,3.3659973 0 0 0 25.34642,-3.3662 25.346267,3.3659973 0 0 0 -0.0172,-0.11886 z"
         id="path25372-0-5-0" /><path
         style="color:#000000;fill:#17295c;stroke-width:2.54759;stroke-linecap:round;stroke-linejoin:round"
         d="m 148.91406,206.21094 a 0.50005,0.50005 0 0 0 -0.37304,0.40625 c 0.002,-0.0126 -0.0645,0.1358 -0.36915,0.3164 -0.3046,0.18061 -0.79295,0.37999 -1.42578,0.57032 -1.26565,0.38065 -3.11244,0.73405 -5.38281,1.02929 -4.54074,0.59049 -10.78475,0.95663 -17.6582,0.95703 -6.83928,-4.4e-4 -13.05716,-0.3633 -17.59375,-0.94921 -2.2683,-0.29296 -4.11859,-0.64295 -5.39453,-1.02149 -0.63798,-0.18927 -1.132633,-0.38885 -1.447269,-0.57031 -0.314635,-0.18146 -0.399727,-0.34003 -0.398437,-0.33399 a 0.50005,0.50005 0 0 0 -0.962891,-0.0566 c -0.02117,0.0622 -0.03649,0.12665 -0.04492,0.19336 a 0.50005,0.50005 0 0 0 -0.0039,0.0625 c -2.21e-4,0.48674 0.339462,0.83623 0.742187,1.09766 0.402726,0.26143 0.933529,0.48029 1.59961,0.68945 1.33216,0.41832 3.20581,0.78308 5.51563,1.08985 4.61963,0.61353 10.97093,0.99022 17.98828,0.99023 7.01744,1e-5 13.3705,-0.3767 17.99023,-0.99023 2.30987,-0.30677 4.18343,-0.67152 5.51563,-1.08985 0.66609,-0.20916 1.19492,-0.42802 1.59765,-0.68945 0.40274,-0.26144 0.74437,-0.61091 0.74414,-1.09766 a 0.50005,0.50005 0 0 0 0,-0.006 c -9.8e-4,-0.084 -0.0151,-0.16678 -0.0371,-0.24609 a 0.50005,0.50005 0 0 0 -0.60156,-0.35156 z"
         id="path25374-5-2-0" /></g><g
       id="path21655-2-2-6"
       style="stroke-width:2.54759"><path
         style="color:#000000;fill:#6684c8;stroke-width:2.54759;stroke-linecap:round;stroke-linejoin:round"
         d="m 123.66861,191.05478 c -11.28845,4e-5 -20.43955,7.16146 -20.43958,9.89345 20.90333,4.1954 40.87968,0 40.87968,0 -0.17212,-3.03659 -9.15145,-9.89355 -20.4401,-9.89345 z"
         id="path25378-0-2-7" /><path
         style="color:#000000;fill:#6684c8;stroke-width:2.54759;stroke-linecap:round;stroke-linejoin:round"
         d="m 123.66797,190.55469 c -5.74995,2e-5 -10.93466,1.81741 -14.70117,3.98828 -1.88326,1.08543 -3.41243,2.25944 -4.48828,3.35742 -1.07586,1.09798 -1.74999,2.08475 -1.75,3.04688 a 0.50004949,0.50004949 0 0 0 0.40234,0.49023 c 21.02662,4.22014 41.08008,0 41.08008,0 a 0.50004949,0.50004949 0 0 0 0.39648,-0.51758 c -0.0563,-0.99377 -0.73566,-2.03521 -1.82031,-3.14844 -1.08466,-1.11322 -2.60889,-2.27702 -4.48242,-3.34375 -3.74707,-2.13345 -8.89116,-3.87309 -14.63672,-3.87304 z m 0,1 c 5.54308,-5e-5 10.5348,1.68804 14.14258,3.74218 1.80389,1.02708 3.26157,2.14734 4.26172,3.17383 0.83729,0.85935 1.13153,1.54909 1.2871,2.09766 -1.72542,0.34377 -19.82094,3.75619 -39.38671,-0.0117 0.1318,-0.47275 0.39321,-1.11253 1.2207,-1.95703 0.99275,-1.01316 2.45591,-2.14303 4.27148,-3.18945 3.63116,-2.09285 8.66464,-3.85545 14.20313,-3.85547 z"
         id="path25380-7-4-0" /></g></g><path
     d="m 12.113153,22.082131 c -0.0674,-0.0945 -0.11254,-0.20602 -0.12806,-0.32667 h 0.19014 c -0.0279,0.10725 -0.0487,0.21625 -0.0621,0.32667"
     style="fill:#2f4066;fill-opacity:1;fill-rule:nonzero;stroke:none;stroke-width:0.0352778"
     id="path11891-8-9-9-7" /><path
     d="m 9.4673132,20.528501 c 0,1.00824 0.9680198,1.82563 2.1621798,1.82563 1.19415,0 2.16217,-0.81739 2.16217,-1.82563 0,-1.00859 -0.96802,-1.82562 -2.16217,-1.82562 -1.19416,0 -2.1621798,0.81703 -2.1621798,1.82562"
     style="fill:#e085c5;fill-opacity:1;fill-rule:nonzero;stroke:none;stroke-width:0.0352778"
     id="path11895-5-5-7-3" /><path
     d="m 19.216383,19.662781 c 0,1.1998 0.97226,2.17241 2.17241,2.17241 1.19979,0 2.1724,-0.97261 2.1724,-2.17241 0,-1.19979 -0.97261,-2.1724 -2.1724,-2.1724 -1.20015,0 -2.17241,0.97261 -2.17241,2.1724"
     style="fill:#f0c6bd;fill-opacity:1;fill-rule:nonzero;stroke:none;stroke-width:0.0352778"
     id="path11903-0-4-0-1" /><path
     d="m 22.014613,19.957351 h -0.58913 c -0.10125,0 -0.1838,-0.0829 -0.1838,-0.18415 0,-0.10124 0.0825,-0.18415 0.1838,-0.18415 h 0.58913 c 0.10125,0 0.18451,0.0829 0.18451,0.18415 0,0.10125 -0.0833,0.18415 -0.18451,0.18415"
     style="fill:#d1acb8;fill-opacity:1;fill-rule:nonzero;stroke:none;stroke-width:0.0352778"
     id="path11905-1-9-7-4" /><path
     d="m 6.5069362,19.461331 v 0 c 0.42933,0 0.78069,-0.35136 0.78069,-0.78069 v -0.23143 c 0,-0.42933 -0.35136,-0.78069 -0.78069,-0.78069 -0.42933,0 -0.7807,0.35136 -0.7807,0.78069 v 0.23143 c 0,0.42933 0.35137,0.78069 0.7807,0.78069"
     style="fill:#2b4a6e;fill-opacity:1;fill-rule:nonzero;stroke:none;stroke-width:0.0352778"
     id="path11907-9-1-1-00" /><path
     d="m 16.624363,19.528191 v 0 c 0.42933,0 0.7807,-0.35136 0.7807,-0.78069 v -0.23143 c 0,-0.42933 -0.35137,-0.78069 -0.7807,-0.78069 -0.42933,0 -0.7807,0.35136 -0.7807,0.78069 v 0.23143 c 0,0.42933 0.35137,0.78069 0.7807,0.78069"
     style="fill:#2b4a6e;fill-opacity:1;fill-rule:nonzero;stroke:none;stroke-width:0.0352778"
     id="path11909-4-5-6-8" /><path
     d="m 5.7073112,13.507091 2.793601,-0.23142 c 0.560411,-0.0464 0.981242,-0.54288 0.934789,-1.10364 l -0.02012,-0.24294 c -0.04645,-0.560759 -0.543269,-0.98156 -1.103679,-0.935136 l -2.793601,0.231418 c -0.560411,0.04642 -0.981551,0.543268 -0.935098,1.104028 l 0.02012,0.24294 c 0.04645,0.56076 0.543577,0.98117 1.103988,0.93475"
     style="fill:#305065;fill-opacity:1;fill-rule:nonzero;stroke:none;stroke-width:0.0352778"
     id="path11929-8-9-0-7" /><path
     d="m 14.745203,13.195801 2.78274,0.33781 c 0.55858,0.0678 1.07103,-0.33338 1.13884,-0.89196 l 0.0294,-0.24199 c 0.0678,-0.55858 -0.33373,-1.071088 -0.89231,-1.138896 l -2.78274,-0.337806 c -0.55823,-0.06777 -1.07074,0.33378 -1.13854,0.892362 l -0.0294,0.24199 c -0.0678,0.55858 0.33378,1.07073 0.89201,1.13849"
     style="fill:#305065;fill-opacity:1;fill-rule:nonzero;stroke:none;stroke-width:0.0352778"
     id="path11933-0-3-9-3" /><path
     d="m 6.5288392,8.1297718 1.47637,1.476728 c 0.31398,0.31362 0.82727,0.31362 1.14089,0 0.31397,-0.313968 0.31397,-0.827258 0,-1.140878 l -1.47638,-1.47673 c -0.31362,-0.31362 -0.82726,-0.31362 -1.14088,0 -0.31362,0.31362 -0.31362,0.82726 0,1.14088"
     style="fill:#3e687d;fill-opacity:1;fill-rule:nonzero;stroke:none;stroke-width:0.0352778"
     id="path11969-1-9-2-8" /><path
     d="m 4.1288892,8.1297718 1.47638,1.476728 c 0.31362,0.31362 0.82726,0.31362 1.14088,0 0.31362,-0.313968 0.31362,-0.827258 0,-1.140878 l -1.47638,-1.47673 c -0.31397,-0.31362 -0.82726,-0.31362 -1.14088,0 -0.31397,0.31362 -0.31397,0.82726 0,1.14088"
     style="fill:#3e687d;fill-opacity:1;fill-rule:nonzero;stroke:none;stroke-width:0.0352778"
     id="path11971-6-0-9-4" /><path
     d="m 1.7285892,8.1297718 1.47673,1.476728 c 0.31327,0.31362 0.82691,0.31362 1.14053,0 0.31397,-0.313968 0.31397,-0.827258 0,-1.140878 l -1.47638,-1.47673 c -0.31361,-0.31362 -0.82691,-0.31362 -1.14088,0 -0.31397,0.31362 -0.31397,0.82726 0,1.14088"
     style="fill:#3e687d;fill-opacity:1;fill-rule:nonzero;stroke:none;stroke-width:0.0352778"
     id="path11973-1-7-6-5" /><g
     id="g26437-0-2"
     transform="matrix(0.81979743,0,0,0.81979743,-74.867865,-144.54702)"
     style="stroke-width:1.21981"><path
       d="m 102.94158,184.99664 c 0,1.14899 1.11196,2.08068 2.48356,2.08068 1.3716,0 2.4832,-0.93169 2.4832,-2.08068 0,-1.14935 -1.1116,-2.08069 -2.4832,-2.08069 -1.3716,0 -2.48356,0.93134 -2.48356,2.08069"
       style="fill:#ffffff;fill-opacity:1;fill-rule:nonzero;stroke:none;stroke-width:0.0430323"
       id="path11917-9-8-2-9" /><path
       d="m 104.70265,184.83542 h 1.17934 c 0.0871,0 0.15804,-0.0713 0.15804,-0.1584 0,-0.0871 -0.0709,-0.1584 -0.15804,-0.1584 h -1.17934 c -0.0868,0 -0.15804,0.0713 -0.15804,0.1584 0,0.0871 0.0713,0.1584 0.15804,0.1584"
       style="fill:#35419b;fill-opacity:1;fill-rule:nonzero;stroke:none;stroke-width:0.0430323"
       id="path11919-6-6-8-0" /><path
       d="m 105.2925,186.31038 v 0 c 0.10865,0 0.1972,-0.0889 0.1972,-0.19756 v -2.10714 c 0,-0.10865 -0.0885,-0.19755 -0.1972,-0.19755 -0.10901,0 -0.19791,0.0889 -0.19791,0.19755 v 2.10714 c 0,0.10866 0.0889,0.19756 0.19791,0.19756"
       style="fill:#35419b;fill-opacity:1;fill-rule:nonzero;stroke:none;stroke-width:0.0430323"
       id="path11921-6-1-4-9" /><path
       d="m 105.34506,186.46807 c -0.8576,0 -1.36631,-0.85866 -1.38748,-0.89535 -0.0434,-0.0748 -0.018,-0.1711 0.0572,-0.21484 0.0752,-0.0445 0.17145,-0.0187 0.2152,0.0565 0.004,0.007 0.44027,0.73872 1.11513,0.73872 0.66851,0 0.99942,-0.7045 1.00295,-0.71191 0.0363,-0.0787 0.12947,-0.11359 0.20884,-0.0773 0.079,0.0363 0.11324,0.12982 0.0773,0.20884 -0.0166,0.0363 -0.42086,0.89535 -1.28905,0.89535"
       style="fill:#35419b;fill-opacity:1;fill-rule:nonzero;stroke:none;stroke-width:0.0430323"
       id="path11923-4-9-4-80" /><path
       d="m 104.90973,183.89456 c 0,0.20038 0.16263,0.36265 0.36266,0.36265 0.20073,0 0.36336,-0.16227 0.36336,-0.36265 0,-0.20073 -0.16263,-0.36301 -0.36336,-0.36301 -0.20003,0 -0.36266,0.16228 -0.36266,0.36301"
       style="fill:#35419b;fill-opacity:1;fill-rule:nonzero;stroke:none;stroke-width:0.0430323"
       id="path11925-0-6-8-53" /></g><path
     d="M 2.0005792,10.05347 H 18.752233 c 0.496,0 0.90205,-0.4057002 0.90205,-0.9016982 0,-0.49601 -0.40605,-0.9017 -0.90205,-0.9017 H 2.0005792 c -0.496,0 -0.9017,0.40569 -0.9017,0.9017 0,0.495998 0.4057,0.9016982 0.9017,0.9016982"
     style="fill:#3e687d;fill-opacity:1;fill-rule:nonzero;stroke:none;stroke-width:0.0352778"
     id="path11975-1-6-0-5" /></svg>
